<svg width="186" height="23" viewBox="0 0 186 23" fill="none" xmlns="http://www.w3.org/2000/svg">
<path d="M20.116 23L16.372 8.696L12.628 23H6.516L0.692 0.0239983H6.612L9.716 13.72L13.364 0.0239983H19.476L22.996 13.784L26.132 0.0239983H32.052L26.196 23H20.116ZM36.7558 13.976H46.5158L48.0838 18.744H35.1558L36.7558 13.976ZM47.0598 23L41.6838 6.68L36.1478 23H30.0358L38.5478 0.0239983H45.1718L53.5878 23H47.0598ZM62.0693 23H56.0213V0.0239983H62.0693V23ZM77.8805 23H71.8325V5.496H64.7925V0.0239983H84.9205V5.496H77.8805V23ZM103.902 17.752V23H87.6463V0.0239983H103.678V5.272H93.6943V8.568H102.75V13.816H93.6943V17.752H103.902ZM113.413 23H107.365V0.0239983H116.773C119.888 0.0239983 122.288 0.695999 123.973 2.04C125.68 3.36267 126.533 5.25067 126.533 7.704C126.533 9.176 126.106 10.4987 125.253 11.672C124.421 12.824 123.226 13.7307 121.669 14.392L127.301 23H120.101L115.397 15.352H113.413V23ZM113.413 5.016V10.36H116.517C117.861 10.36 118.853 10.1467 119.493 9.72C120.133 9.29333 120.453 8.62133 120.453 7.704C120.453 6.78667 120.133 6.11467 119.493 5.688C118.853 5.24 117.861 5.016 116.517 5.016H113.413ZM133.093 14.84H144.485L144.965 16.152H132.261L133.093 14.84ZM146.917 23L138.629 1.656L130.309 23H128.773L137.829 0.0239983H139.525L148.517 23H146.917ZM159.419 14.2H153.787V23H152.219V0.0239983H159.419C160.891 0.0239983 162.193 0.301332 163.323 0.855999C164.475 1.41067 165.371 2.21067 166.011 3.256C166.673 4.30133 167.003 5.58133 167.003 7.096C167.003 8.61067 166.673 9.90133 166.011 10.968C165.371 12.0347 164.475 12.8453 163.323 13.4C162.193 13.9333 160.891 14.2 159.419 14.2ZM159.387 1.368H153.787V12.888H159.387C161.222 12.888 162.694 12.3867 163.803 11.384C164.913 10.3813 165.467 8.96267 165.467 7.128C165.467 5.272 164.913 3.85333 163.803 2.872C162.694 1.86933 161.222 1.368 159.387 1.368ZM178.076 14.2H172.444V23H170.876V0.0239983H178.076C179.548 0.0239983 180.849 0.301332 181.98 0.855999C183.132 1.41067 184.028 2.21067 184.668 3.256C185.329 4.30133 185.66 5.58133 185.66 7.096C185.66 8.61067 185.329 9.90133 184.668 10.968C184.028 12.0347 183.132 12.8453 181.98 13.4C180.849 13.9333 179.548 14.2 178.076 14.2ZM178.044 1.368H172.444V12.888H178.044C179.878 12.888 181.35 12.3867 182.46 11.384C183.569 10.3813 184.124 8.96267 184.124 7.128C184.124 5.272 183.569 3.85333 182.46 2.872C181.35 1.86933 179.878 1.368 178.044 1.368Z" fill="#333333"/>
</svg>
